<?xml version="1.0" encoding="UTF-8" standalone="no"?>
<svg
   xmlns:dc="http://purl.org/dc/elements/1.1/"
   xmlns:cc="http://creativecommons.org/ns#"
   xmlns:rdf="http://www.w3.org/1999/02/22-rdf-syntax-ns#"
   xmlns:svg="http://www.w3.org/2000/svg"
   xmlns="http://www.w3.org/2000/svg"
   viewBox="0 0 566.92499 921.26251"
   height="921.26251"
   width="566.92499"
   xml:space="preserve"
   version="1.1"
   id="svg2"><metadata
     id="metadata8"><rdf:RDF><cc:Work
         rdf:about=""><dc:format>image/svg+xml</dc:format><dc:type
           rdf:resource="http://purl.org/dc/dcmitype/StillImage" /></cc:Work></rdf:RDF></metadata><defs
     id="defs6"><clipPath
       id="clipPath18"
       clipPathUnits="userSpaceOnUse"><path
         id="path20"
         d="m 0,737.01 453.54,0 L 453.54,0 0,0 0,737.01 Z" /></clipPath></defs><g
     transform="matrix(1.25,0,0,-1.25,0,921.2625)"
     id="g10"><path
       id="path12"
       style="fill:#e9e9e9;fill-opacity:1;fill-rule:nonzero;stroke:none"
       d="m 0,95.19 453.54,0 0,557.001 L 0,652.191 0,95.19 Z" /><g
       id="g14"><g
         clip-path="url(#clipPath18)"
         id="g16"><g
           transform="translate(251.168,331.3779)"
           id="g22"><path
             id="path24"
             style="fill:#a6a8a7;fill-opacity:1;fill-rule:nonzero;stroke:none"
             d="M 0,0 -19.161,-20.778 C -25.822,-28 -37.18,-28.46 -44.401,-21.8 l -4.353,4.014 L -32.352,0 0,0 Z m -54.782,96.003 5.376,5.829 c 6.66,7.222 18.019,7.681 25.24,1.022 L 27.021,55.649 c 7.222,-6.66 7.682,-18.018 1.022,-25.24 L 5.082,5.511 l -32.353,0 20.096,21.791 c 6.797,7.37 6.327,18.963 -1.043,25.761 l -46.564,42.94 z" /></g><g
           transform="translate(212.3452,331.4941)"
           id="g26"><path
             id="path28"
             style="fill:#a31a19;fill-opacity:1;fill-rule:nonzero;stroke:none"
             d="m 0,0 -23.11,-25.061 c -6.798,-7.371 -18.39,-7.838 -25.761,-1.042 L -77.175,0 0,0 Z m -102.159,47.838 48.18,52.246 c 6.798,7.371 18.39,7.84 25.761,1.043 L 24.028,52.946 c 7.37,-6.797 7.841,-18.39 1.043,-25.76 L 4.795,5.198 l -87.608,0 -18.304,16.88 c -7.371,6.798 -7.84,18.389 -1.042,25.76" /></g><g
           transform="translate(223.6641,336.8887)"
           id="g30"><path
             id="path32"
             style="fill:#9d131a;fill-opacity:1;fill-rule:nonzero;stroke:none"
             d="m 0,0 138.219,0 0,-5.511 -143.431,0 L 0,0 Z" /></g><g
           transform="translate(232.5684,384.8921)"
           id="g34"><path
             id="path36"
             style="fill:#ffffff;fill-opacity:1;fill-rule:nonzero;stroke:none"
             d="m 0,0 0,-5.264 -6.596,0 0,-17.252 c 0,-3.109 -0.064,-4.693 3.742,-4.693 1.015,0 1.776,0 2.854,0.126 l 0,-5.709 c -2.156,-0.253 -3.044,-0.253 -4.884,-0.253 -9.514,0 -8.943,4.756 -8.943,12.178 l 0,15.603 -5.455,0 0,5.264 5.455,0 0,9.832 7.231,0 L -6.596,0 0,0 Z m -18.428,12.432 -7.167,0 0,-45.16 7.167,0 0,45.16 z M -28.293,0 l -7.23,0 0,-32.728 7.23,0 0,32.728 z m 0,12.622 -7.23,0 0,-7.104 7.23,0 0,7.104 z M -37.968,0 l -7.231,0 0,-17.316 c 0,-5.391 -2.093,-10.211 -7.865,-10.211 -6.152,0 -6.406,4.059 -6.406,8.817 l 0,18.71 -7.231,0 0,-21.692 c 0,-7.674 3.933,-11.924 11.164,-11.924 4.566,0 7.991,1.839 10.782,5.772 l 0,-4.884 6.787,0 0,32.728 z m -41.579,-22.643 -5.328,4.63 -3.805,-4.313 4.63,-3.933 c -1.713,-0.76 -3.108,-1.077 -5.075,-1.077 -8.372,0 -13.763,6.722 -13.763,17.188 0,10.211 5.391,16.871 13.637,16.871 8.372,0 13.763,-6.596 13.763,-16.871 0,-4.947 -1.014,-8.626 -4.059,-12.495 m 11.48,-9.958 -5.898,5.074 c 4.059,3.869 6.405,10.211 6.405,17.442 0,13.827 -8.879,23.468 -21.565,23.468 -12.812,0 -21.755,-9.704 -21.755,-23.658 0,-14.017 8.753,-23.531 21.502,-23.531 4.059,0 7.991,0.888 10.719,2.6 l 6.723,-5.709 3.869,4.314 z" /></g><g
           transform="translate(354.9785,368.7925)"
           id="g38"><path
             id="path40"
             style="fill:#9d131a;fill-opacity:1;fill-rule:nonzero;stroke:none"
             d="m 0,0 0,-5.672 c 0,-3.983 -4.646,-7.301 -9.474,-7.301 -3.862,0 -6.215,1.991 -6.215,5.188 0,5.01 5.069,5.432 8.81,5.914 C -4.586,-1.569 -1.931,-1.448 0,0 M 8.268,-12.069 C 7.724,-12.189 7.482,-12.25 7,-12.25 c -1.569,0 -2.112,0.785 -2.112,3.078 0,4.646 0.242,9.233 0.242,13.879 0,2.776 0.059,5.974 -2.112,8.086 -2.052,1.931 -5.613,3.018 -9.777,3.018 -8.025,0 -12.852,-3.923 -13.034,-10.561 l 5.009,0 c 0.483,4.586 2.957,6.336 7.723,6.336 C -2.475,11.586 0,9.776 0,6.457 0,2.233 -2.534,2.414 -9.957,1.509 -17.318,0.604 -21,-2.655 -21,-8.207 c 0,-5.43 3.802,-8.81 9.957,-8.81 4.828,0 8.207,1.509 11.284,4.948 0.061,-2.957 1.63,-4.586 4.527,-4.586 1.146,0 2.413,0.181 3.5,0.604 l 0,3.982 z m -46.017,23.534 c 7,0 9.655,-5.853 9.655,-12.068 0,-7.604 -3.56,-12.189 -9.534,-12.189 -5.914,0 -9.655,4.827 -9.655,12.37 0,7.301 3.681,11.887 9.534,11.887 m 14.663,15.328 -5.129,0 0,-15.992 c -2.293,3.32 -5.672,5.07 -10.198,5.07 -9.595,0 -14.181,-7.603 -14.181,-16.414 0,-10.137 5.613,-16.474 14.423,-16.474 4.767,0 8.327,1.871 10.258,5.432 l 0,-4.587 4.827,0 0,42.965 z M -60.291,0 c -1.931,-1.448 -4.586,-1.569 -6.88,-1.871 -3.741,-0.482 -8.809,-0.904 -8.809,-5.914 0,-3.197 2.353,-5.188 6.215,-5.188 4.827,0 9.474,3.318 9.474,7.301 l 0,5.672 z m 8.268,-12.069 0,-3.982 c -1.087,-0.423 -2.354,-0.604 -3.501,-0.604 -2.897,0 -4.465,1.629 -4.526,4.586 -3.077,-3.439 -6.456,-4.948 -11.284,-4.948 -6.155,0 -9.957,3.38 -9.957,8.81 0,5.552 3.682,8.811 11.043,9.716 7.423,0.905 9.957,0.724 9.957,4.948 0,3.319 -2.475,5.129 -7.061,5.129 -4.766,0 -7.241,-1.75 -7.723,-6.336 l -5.009,0 c 0.182,6.638 5.009,10.561 13.034,10.561 4.164,0 7.724,-1.087 9.777,-3.018 2.171,-2.112 2.111,-5.31 2.111,-8.086 0,-4.646 -0.241,-9.233 -0.241,-13.879 0,-2.293 0.543,-3.078 2.112,-3.078 0.482,0 0.724,0.061 1.268,0.181 m -27.733,0.846 -22.809,0 0,38.016 -5.673,0 0,-42.965 28.482,0 0,4.949 z" /></g></g></g></g></svg>